<?xml version="1.0" encoding="UTF-8" standalone="no"?>
<svg
   width="28"
   height="28"
   viewBox="0 0 28 28"
   fill="none"
   version="1.1"
   id="svg13"
   sodipodi:docname="facebook.svg"
   inkscape:version="1.1.1 (3bf5ae0d25, 2021-09-20)"
   xmlns:inkscape="http://www.inkscape.org/namespaces/inkscape"
   xmlns:sodipodi="http://sodipodi.sourceforge.net/DTD/sodipodi-0.dtd"
   xmlns="http://www.w3.org/2000/svg"
   xmlns:svg="http://www.w3.org/2000/svg">
  <sodipodi:namedview
     id="namedview15"
     pagecolor="#ffffff"
     bordercolor="#999999"
     borderopacity="1"
     inkscape:pageshadow="0"
     inkscape:pageopacity="0"
     inkscape:pagecheckerboard="0"
     showgrid="false"
     inkscape:zoom="25.678571"
     inkscape:cx="18.05007"
     inkscape:cy="16.35605"
     inkscape:window-width="2560"
     inkscape:window-height="1506"
     inkscape:window-x="-11"
     inkscape:window-y="-11"
     inkscape:window-maximized="1"
     inkscape:current-layer="g6" />
  <g
     clip-path="url(#clip0_15_118)"
     id="g6">
    <path
       d="M28 14C28 6.26798 21.732 -3.05176e-05 14 -3.05176e-05C6.26801 -3.05176e-05 0 6.26798 0 14C0 20.9878 5.1196 26.7796 11.8125 27.8299V18.0468H8.25781V14H11.8125V10.9156C11.8125 7.40685 13.9026 5.46872 17.1005 5.46872C18.6322 5.46872 20.2344 5.74216 20.2344 5.74216V9.18747H18.469C16.7299 9.18747 16.1875 10.2666 16.1875 11.3738V14H20.0703L19.4496 18.0468H16.1875V27.8299C22.8804 26.7796 28 20.9878 28 14Z"
       fill="#100F0D"
       id="path2" />
    <path
       d="M19.4496 18.0469L20.0703 14H16.1875V11.3738C16.1875 10.2667 16.7299 9.1875 18.469 9.1875H20.2344V5.74219C20.2344 5.74219 18.6322 5.46875 17.1005 5.46875C13.9026 5.46875 11.8125 7.40688 11.8125 10.9156V14H8.25781V18.0469H11.8125V27.8299C12.5253 27.9418 13.2558 28 14 28C14.7442 28 15.4747 27.9418 16.1875 27.8299V18.0469H19.4496Z"
       fill="#E8F5E2"
       id="path4"
       style="fill:#e8f5e2;fill-opacity:0" />
  </g>
  <defs
     id="defs11">
    <clipPath
       id="clip0_15_118">
      <rect
         width="28"
         height="28"
         fill="white"
         id="rect8" />
    </clipPath>
  </defs>
</svg>
