<svg width="28" height="28" viewBox="0 0 28 28" fill="none" xmlns="http://www.w3.org/2000/svg">
<path d="M8.20151 0.0979094C6.71196 0.168187 5.69475 0.405899 4.8055 0.755327C3.88517 1.114 3.10512 1.5953 2.32898 2.37423C1.55285 3.15317 1.07491 3.93378 0.718758 4.85551C0.37409 5.74672 0.140578 6.76477 0.0747802 8.25516C0.00898241 9.74555 -0.00557711 10.2246 0.00170264 14.0263C0.0089824 17.828 0.0257818 18.3046 0.0980194 19.798C0.169137 21.2873 0.406009 22.3042 0.755437 23.1938C1.11467 24.1141 1.59541 24.8939 2.37462 25.6703C3.15384 26.4467 3.93389 26.9235 4.85786 27.2802C5.74823 27.6243 6.76656 27.859 8.25667 27.9242C9.74677 27.9895 10.2264 28.0046 14.027 27.9973C17.8276 27.99 18.3061 27.9732 19.7993 27.9024C21.2925 27.8315 22.3041 27.593 23.1939 27.2452C24.1142 26.8852 24.8945 26.4053 25.6704 25.6258C26.4463 24.8463 26.9239 24.0651 27.2798 23.1428C27.6247 22.2524 27.8591 21.2341 27.9238 19.7451C27.989 18.2508 28.0044 17.7737 27.9971 13.9726C27.9898 10.1714 27.9728 9.69487 27.9019 8.20196C27.8311 6.70905 27.5939 5.6952 27.2448 4.80511C26.885 3.88478 26.4048 3.10557 25.6259 2.32859C24.8469 1.55162 24.0652 1.07424 23.1432 0.719209C22.2523 0.37454 21.2345 0.139628 19.7444 0.0752301C18.2543 0.0108323 17.7747 -0.00568715 13.9727 0.0015926C10.1707 0.00887236 9.6947 0.0251118 8.20151 0.0979094ZM8.36502 25.4057C7.00007 25.3463 6.25893 25.1196 5.76503 24.9297C5.11097 24.6777 4.64507 24.3731 4.15284 23.8856C3.66062 23.3982 3.35823 22.9306 3.10288 22.2779C2.91108 21.784 2.68009 21.0437 2.61625 19.6788C2.54682 18.2035 2.53226 17.7606 2.52414 14.023C2.51602 10.2854 2.5303 9.84298 2.59498 8.36715C2.65321 7.00332 2.88141 6.26134 3.07096 5.76772C3.32295 5.11282 3.62646 4.64776 4.11504 4.15581C4.60363 3.66387 5.06981 3.36092 5.72303 3.10557C6.21637 2.91293 6.95667 2.6839 8.32106 2.61894C9.79745 2.54895 10.2398 2.53495 13.9769 2.52683C17.7139 2.51871 18.1574 2.53271 19.6344 2.59767C20.9982 2.65702 21.7404 2.88298 22.2335 3.07365C22.8879 3.32564 23.3535 3.62831 23.8454 4.11773C24.3374 4.60716 24.6406 5.07166 24.8959 5.72628C25.0889 6.21822 25.3179 6.95824 25.3823 8.32347C25.4526 9.79986 25.4685 10.2425 25.4752 13.9793C25.482 17.716 25.4688 18.1598 25.4041 19.6351C25.3445 21 25.1183 21.7415 24.9281 22.2359C24.6762 22.8897 24.3724 23.3559 23.8835 23.8476C23.3946 24.3392 22.929 24.6422 22.2755 24.8975C21.7827 25.0899 21.0416 25.3195 19.6783 25.3844C18.2019 25.4539 17.7595 25.4684 14.0211 25.4765C10.2827 25.4847 9.84169 25.4695 8.3653 25.4057M19.7777 6.51725C19.7783 6.84954 19.8774 7.1742 20.0624 7.45016C20.2475 7.72613 20.5103 7.94102 20.8175 8.06764C21.1247 8.19426 21.4626 8.22693 21.7883 8.16152C22.1141 8.09612 22.4132 7.93556 22.6477 7.70017C22.8823 7.46478 23.0417 7.16512 23.1059 6.8391C23.1701 6.51308 23.1362 6.17534 23.0085 5.86859C22.8807 5.56184 22.6649 5.29987 22.3882 5.1158C22.1116 4.93174 21.7866 4.83385 21.4543 4.83451C21.0088 4.8354 20.582 5.01317 20.2676 5.32873C19.9532 5.64429 19.777 6.0718 19.7777 6.51725ZM6.81135 14.0134C6.81919 17.9837 10.0436 21.1949 14.013 21.1874C17.9824 21.1798 21.1959 17.9557 21.1883 13.9854C21.1807 10.0152 17.9555 6.80312 13.9856 6.81096C10.0156 6.8188 6.80379 10.0437 6.81135 14.0134ZM9.33295 14.0084C9.33112 13.0854 9.60303 12.1827 10.1143 11.4142C10.6255 10.6458 11.3532 10.0462 12.2052 9.69134C13.0572 9.33644 13.9953 9.24217 14.9009 9.42044C15.8065 9.59871 16.6389 10.0415 17.2928 10.6929C17.9467 11.3442 18.3928 12.1748 18.5747 13.0797C18.7565 13.9846 18.666 14.9231 18.3144 15.7765C17.9629 16.6299 17.3663 17.3599 16.5998 17.8742C15.8334 18.3885 14.9318 18.6639 14.0088 18.6658C13.3959 18.6671 12.7888 18.5476 12.2222 18.3142C11.6555 18.0809 11.1403 17.7381 10.7061 17.3057C10.2719 16.8732 9.92717 16.3594 9.69156 15.7936C9.45594 15.2279 9.33409 14.6213 9.33295 14.0084Z" fill="black"/>
</svg>
