<svg width="86" height="82" viewBox="0 0 86 82" fill="none" xmlns="http://www.w3.org/2000/svg">
<path d="M39.7307 0.938887C39.8404 2.60789 39.816 4.28907 39.6576 5.9459C39.6333 6.153 39.6211 6.3601 39.5845 6.55502C39.5723 6.65248 39.5602 6.74994 39.548 6.8474C39.5358 6.99359 39.5845 6.61594 39.548 6.83522C39.5358 6.89614 39.5358 6.96923 39.5236 7.03014C39.4627 7.44435 39.3896 7.85855 39.3165 8.27275C39.1582 9.10116 38.9511 9.92958 38.7074 10.7336C38.5856 11.1113 38.4637 11.4889 38.3297 11.8666C38.2566 12.0493 38.1957 12.2321 38.1104 12.4148C38.0982 12.4514 38.0495 12.5123 38.0495 12.561C38.0495 12.4392 38.1226 12.4026 38.0739 12.4879C38.0252 12.5854 37.9886 12.6828 37.9399 12.7803C37.6475 13.426 37.2942 14.0473 36.9044 14.632C36.8191 14.766 36.7217 14.9 36.6242 15.034C36.5755 15.1071 36.5145 15.1802 36.4658 15.2533C36.4414 15.2777 36.4171 15.3142 36.4049 15.3386C36.5267 15.1193 36.4536 15.2777 36.4171 15.3264C36.1978 15.6066 35.9542 15.8868 35.7105 16.1548C35.4669 16.4107 35.2232 16.6543 34.9552 16.898C34.8333 17.0076 34.6994 17.1173 34.5654 17.2269C34.5044 17.2756 34.4435 17.3244 34.3826 17.3731C34.2852 17.4462 34.5653 17.2269 34.4191 17.3487C34.3704 17.3853 34.3339 17.4096 34.2851 17.4462C33.9684 17.6777 33.6394 17.8969 33.2983 18.0919C32.9572 18.2868 32.604 18.433 32.2507 18.6157C32.2629 18.6035 32.4577 18.5304 32.3237 18.5792C32.275 18.6035 32.2263 18.6157 32.1776 18.6401C32.0801 18.6766 31.9827 18.7132 31.873 18.7497C31.6903 18.8106 31.5075 18.8715 31.3126 18.9203C30.9349 19.0299 30.5451 19.103 30.1553 19.1517C29.9482 19.1761 29.7045 19.3954 29.6071 19.5659C29.5096 19.7487 29.4731 19.9436 29.4974 20.1507C29.5583 20.5893 29.936 20.9426 30.3989 20.9426C31.2882 20.9304 32.1776 20.9304 33.0669 20.9913C33.274 21.0035 33.4689 21.0278 33.676 21.0522C33.6882 21.0522 33.9075 21.0888 33.7613 21.0644C33.6029 21.04 33.8222 21.0766 33.8465 21.0766C33.9562 21.0888 34.0659 21.1131 34.1755 21.1375C34.6141 21.2228 35.0405 21.3324 35.4547 21.4664C35.5278 21.4908 35.613 21.5273 35.6861 21.5517C35.7227 21.5639 35.7714 21.5882 35.8079 21.6004C35.881 21.6248 35.9541 21.6979 35.7592 21.5761C35.9054 21.6735 36.0881 21.7223 36.2465 21.8075C36.5511 21.9659 36.8435 22.1364 37.1115 22.3314C37.1846 22.3801 37.2577 22.4288 37.3308 22.4897C37.3551 22.5141 37.3917 22.5385 37.4161 22.5507C37.5379 22.6359 37.3673 22.5141 37.3551 22.5019C37.477 22.6238 37.6353 22.7334 37.7693 22.843C38.0373 23.0867 38.2932 23.3303 38.5368 23.5984C38.6465 23.7202 38.7561 23.842 38.8536 23.9638C38.9023 24.0247 38.9511 24.0856 39.012 24.1587C39.0851 24.2562 38.8779 23.976 38.9876 24.1222C39.0241 24.1709 39.0485 24.2075 39.085 24.2562C39.2921 24.5364 39.4749 24.8288 39.6576 25.1212C39.8404 25.4257 40.0109 25.7425 40.1693 26.0592C40.2424 26.2176 40.3155 26.376 40.3886 26.5343C40.4008 26.5709 40.4129 26.6074 40.4373 26.6318C40.3398 26.4003 40.4007 26.5343 40.4251 26.5952C40.4616 26.6927 40.4982 26.778 40.5348 26.8755C40.815 27.6064 41.0221 28.3495 41.1804 29.1048C41.2292 29.3241 41.2657 29.5312 41.3023 29.7505C41.3144 29.8358 41.3266 29.9333 41.351 30.0185C41.3632 30.0916 41.3754 30.1525 41.3754 30.2256C41.3754 30.1891 41.3632 30.1525 41.3632 30.116C41.3632 30.1647 41.3754 30.2013 41.3754 30.25C41.4241 30.6886 41.4728 31.115 41.4972 31.5535C41.6312 33.5637 41.5094 35.5859 41.3754 37.5839C41.351 38.0346 41.7408 38.4245 42.1672 38.4854C42.618 38.5463 43.0322 38.2661 43.1662 37.8275C44.1286 34.7697 44.2504 31.5413 44.9692 28.4348C45.1276 27.7404 45.3103 27.046 45.5539 26.3638C45.6027 26.2176 45.6636 26.0714 45.7124 25.9374C45.7367 25.8643 45.7854 25.7912 45.8098 25.7059C45.8098 25.7181 45.7245 25.913 45.7854 25.779C45.7976 25.7425 45.822 25.6937 45.8342 25.6572C45.9682 25.3648 46.1022 25.0846 46.2484 24.8044C46.5408 24.244 46.8818 23.708 47.2595 23.2085C47.2839 23.1842 47.3082 23.1476 47.3204 23.1232C47.1986 23.306 47.2351 23.2329 47.2717 23.1841C47.3204 23.1232 47.3692 23.0623 47.4179 23.0014C47.5154 22.8796 47.625 22.7578 47.7346 22.6359C47.9417 22.4045 48.161 22.1852 48.3803 21.9903C48.5143 21.8684 48.6361 21.7588 48.7823 21.6492C48.8067 21.6248 48.8311 21.6126 48.8676 21.5882C48.6483 21.7588 48.8067 21.637 48.8432 21.6004C48.9163 21.5517 48.9773 21.503 49.0504 21.4542C49.3184 21.2715 49.5986 21.1009 49.8909 20.9548C49.964 20.9182 50.0493 20.8817 50.1224 20.8451C50.1589 20.8329 50.1833 20.8207 50.2199 20.8086C50.3904 20.7355 50.0371 20.8816 50.1955 20.8207C50.3539 20.7598 50.5122 20.6989 50.6828 20.6502C50.8533 20.6015 51.0117 20.5527 51.1823 20.5162C51.2554 20.504 51.3406 20.4796 51.4137 20.4675C51.4868 20.4553 51.8279 20.4065 51.5112 20.4431C51.7548 20.4065 51.9863 20.37 52.1569 20.1751C52.2909 20.0289 52.3762 19.8583 52.4127 19.6512C52.4736 19.237 52.2056 18.7375 51.7548 18.6523C51.4015 18.5792 51.0483 18.4939 50.695 18.3842C50.5366 18.3355 50.3904 18.2746 50.232 18.2259C50.1467 18.1893 50.0615 18.1528 49.9762 18.1284C50.2564 18.238 49.9396 18.104 49.8665 18.0797C49.2209 17.7751 48.5996 17.4096 48.027 16.9832C48.0027 16.9589 47.9661 16.9345 47.9417 16.9223C47.8199 16.8249 47.9905 16.9589 48.0026 16.9711C47.9417 16.9102 47.8565 16.8614 47.7834 16.8005C47.6372 16.6787 47.5031 16.5691 47.3691 16.4472C47.1011 16.2036 46.8331 15.9477 46.5895 15.6675C46.3458 15.3995 46.1144 15.1315 45.8829 14.8513C45.8585 14.8148 45.8341 14.7782 45.7976 14.7417C45.8098 14.7539 45.9316 14.9122 45.8342 14.7904C45.7733 14.7173 45.7245 14.6442 45.6636 14.5711C45.5539 14.4249 45.4443 14.2665 45.3469 14.1204C44.9449 13.5234 44.5915 12.8899 44.2748 12.2443C44.2017 12.0859 44.1286 11.9397 44.0555 11.7813C44.0312 11.7448 44.019 11.696 44.0068 11.6595C43.9459 11.5255 44.0311 11.7082 44.0311 11.7204C43.9946 11.6108 43.9459 11.5133 43.9093 11.4158C43.7753 11.0869 43.6535 10.7458 43.5316 10.4047C43.02 8.90624 42.6423 7.35907 42.3378 5.79971C42.1672 4.93475 42.0089 4.05761 41.8749 3.18047C41.814 2.76627 41.753 2.36425 41.6921 1.95004C41.6678 1.74294 41.6312 1.54802 41.6068 1.34092C41.5946 1.26782 41.5459 0.926708 41.5946 1.23127C41.5824 1.12163 41.5703 1.02417 41.5581 0.914528C41.5216 0.658696 41.4728 0.451587 41.2901 0.268849C41.1317 0.110477 40.8759 -0.0113425 40.6444 0.00084005C40.413 0.0130226 40.1571 0.0861117 39.9987 0.268849C39.8403 0.463769 39.6942 0.70742 39.7307 0.938887C40.1571 4.14289 40.6444 7.38343 41.6312 10.4656C42.5814 13.4016 44.1286 16.2036 46.5529 18.165C47.9296 19.2736 49.5133 20.1263 51.2554 20.4553C51.3407 19.8583 51.4138 19.2614 51.499 18.6644C50.7437 18.7619 50.0493 18.9568 49.3427 19.2614C48.7214 19.5294 48.1488 19.8949 47.6128 20.3213C46.5651 21.1375 45.7001 22.1974 45.0179 23.3303C44.2992 24.512 43.7753 25.8156 43.422 27.1556C42.9956 28.7394 42.752 30.3718 42.5083 31.9921C42.2403 33.8195 41.9601 35.6469 41.3997 37.4133C41.9966 37.4986 42.5936 37.5717 43.1906 37.657C43.422 34.0509 43.6291 30.2744 42.4109 26.8024C41.3997 23.9029 39.4139 21.1862 36.5267 19.968C34.5897 19.1517 32.4699 19.1274 30.3989 19.1517C30.4842 19.7487 30.5573 20.3456 30.6426 20.9426C33.7126 20.5162 36.3318 18.5304 38.1226 16.0939C40.1084 13.3894 40.9734 9.9905 41.3876 6.70122C41.6312 4.78857 41.6799 2.86372 41.5459 0.951067C41.5094 0.475949 41.1439 0.0130136 40.6322 0.0373787C40.1693 0.0495612 39.6942 0.427222 39.7307 0.938887Z" fill="#231F20"/>
<path d="M5.89977 25.7059C6.10687 26.6196 6.28961 27.5455 6.44798 28.4714C6.53326 28.9221 6.60639 29.3729 6.6673 29.8236C6.70385 30.0551 6.74037 30.2744 6.76474 30.5058C6.77692 30.6033 6.78908 30.7129 6.80126 30.8104C6.82563 30.981 6.80126 30.8226 6.80126 30.7982C6.81344 30.8713 6.82565 30.9444 6.82565 31.0297C7.0693 32.8693 7.21547 34.7088 7.28856 36.5606C7.32511 37.3524 7.32516 38.1321 7.27643 38.924C7.26424 39.1067 7.25201 39.2894 7.22765 39.4722C7.21547 39.5696 7.20331 39.6671 7.19112 39.7645C7.17894 39.862 7.21549 39.9351 7.19112 39.7402C7.20331 39.8011 7.16674 39.8742 7.16674 39.9351C7.10582 40.3128 7.03273 40.6782 6.92309 41.0437C6.87436 41.2264 6.81346 41.397 6.75254 41.5797C6.72818 41.6528 6.67948 41.7381 6.6673 41.8112C6.71603 41.6285 6.716 41.7137 6.69163 41.7625C6.66726 41.8234 6.64289 41.8721 6.61852 41.933C6.44797 42.2863 6.25306 42.6153 6.02159 42.932C5.96068 43.0051 5.91196 43.0904 5.85105 43.1635C5.86323 43.1391 5.9729 43.0051 5.87544 43.1269C5.85107 43.1635 5.82668 43.2 5.79014 43.2244C5.66831 43.3828 5.53428 43.5411 5.40027 43.6995C5.14444 43.9919 4.86428 44.2843 4.58408 44.5645C4.27952 44.869 3.96274 45.1492 3.63381 45.4294C3.46325 45.5756 3.29272 45.7218 3.10998 45.8558C3.07344 45.8923 3.02471 45.9289 2.98816 45.9533C2.96379 45.9654 2.8176 46.0873 2.92725 46.002C3.04907 45.9167 2.87852 46.0385 2.86633 46.0507C2.8176 46.0873 2.75672 46.1238 2.70799 46.1726C1.97703 46.7086 1.22172 47.2081 0.454221 47.6832C0.125293 47.8903 -0.0940395 48.3288 0.0399681 48.7187C0.161793 49.0842 0.51511 49.4131 0.917133 49.3887C1.68463 49.34 2.45213 49.3035 3.23181 49.34C3.74347 49.3644 4.25514 49.4131 4.75462 49.474C5.03482 49.4984 5.30281 49.5227 5.58301 49.5471C5.66829 49.5471 5.75358 49.5593 5.83885 49.5715C5.86322 49.5715 5.8754 49.5715 5.89977 49.5837C5.99723 49.5958 5.97285 49.5958 5.82666 49.5715C5.85103 49.5836 5.91199 49.5837 5.93635 49.5837C6.13127 49.6202 6.32617 49.6568 6.52109 49.7177C6.69164 49.7664 6.86221 49.8273 7.02058 49.8882C7.06931 49.9004 7.10587 49.9248 7.1546 49.9369C7.27643 49.9857 6.93528 49.8395 7.11802 49.9248C7.21548 49.9735 7.30079 50.01 7.39825 50.0588C7.73936 50.2293 8.0561 50.4242 8.36066 50.6435C8.39721 50.6679 8.43374 50.7044 8.47029 50.7288C8.6043 50.8263 8.43375 50.7044 8.42157 50.6923C8.45812 50.7532 8.5921 50.8263 8.64083 50.875C8.7992 51.009 8.94542 51.143 9.09161 51.277C9.37181 51.545 9.65202 51.8374 9.89567 52.1298C10.0175 52.276 10.1393 52.4222 10.2489 52.5684C10.383 52.7389 10.1271 52.3978 10.2489 52.5684C10.2733 52.6049 10.2977 52.6293 10.3221 52.6658C10.3951 52.7633 10.4682 52.8607 10.5291 52.9582C10.7606 53.2871 10.9799 53.6161 11.187 53.9572C11.6377 54.7003 12.0519 55.48 12.4296 56.2597C12.6367 56.6861 12.8438 57.1246 13.0387 57.551C13.0875 57.6485 13.124 57.7459 13.1727 57.8434C13.1971 57.8921 13.2215 57.953 13.2459 58.0018C13.3068 58.1601 13.2458 58.0139 13.2337 57.9774C13.3433 58.221 13.4286 58.4647 13.526 58.7083C14.3179 60.7063 14.927 62.7651 15.3534 64.8727C15.4387 65.3235 15.9382 65.5793 16.3524 65.5306C16.8397 65.4696 17.0955 65.092 17.1443 64.6291C17.5706 60.9621 16.6447 57.3195 16.864 53.6404C16.8762 53.348 16.9128 53.0557 16.9371 52.7755C16.9493 52.7024 16.9615 52.6293 16.9615 52.5562C16.9737 52.4344 16.925 52.812 16.9493 52.6293C16.9493 52.5927 16.9615 52.5684 16.9615 52.5318C16.9859 52.3734 17.0102 52.2151 17.0346 52.0567C17.1442 51.4354 17.2904 50.8141 17.461 50.2171C17.5584 49.9004 17.6559 49.5836 17.7655 49.2669C17.8142 49.1207 17.863 48.9867 17.9239 48.8527C17.9483 48.7796 17.9848 48.7065 18.0092 48.6334C18.0701 48.4994 17.9848 48.6943 17.9726 48.7065C17.997 48.6578 18.0092 48.6091 18.0336 48.5603C18.2894 47.9877 18.5818 47.4274 18.9351 46.9035C19.0203 46.7695 19.1178 46.6355 19.2153 46.5015C19.2275 46.4771 19.3371 46.3431 19.2274 46.4771C19.13 46.6111 19.2396 46.4649 19.264 46.4406C19.3127 46.3797 19.3614 46.3187 19.4224 46.2578C19.6295 46.0142 19.8609 45.7827 20.1046 45.5756C20.1655 45.5147 20.2386 45.466 20.2995 45.4172C20.3848 45.3441 20.129 45.5391 20.2264 45.4781C20.263 45.4538 20.2995 45.4294 20.336 45.3929C20.47 45.3076 20.5919 45.2223 20.7381 45.137C20.8721 45.0639 21.0061 44.9908 21.1401 44.9299C21.1645 44.9177 21.3107 44.8568 21.1523 44.9178C21.0061 44.9787 21.1279 44.9299 21.1645 44.9178C21.2498 44.8812 21.335 44.8568 21.4203 44.8325C21.7857 44.7107 22.1147 44.3574 22.0903 43.9553C22.0659 43.5411 21.8223 43.2122 21.4203 43.0782C19.8609 42.5543 18.2285 42.3351 16.657 41.8356C16.4742 41.7747 16.2915 41.7137 16.1087 41.6407C16.0722 41.6285 16.0356 41.6163 15.9991 41.6041C15.9747 41.5919 15.8163 41.5066 15.9503 41.5797C16.0843 41.6528 15.926 41.5676 15.9016 41.5554C15.8529 41.531 15.792 41.5067 15.7433 41.4823C15.39 41.3239 15.061 41.129 14.7443 40.9097C14.6956 40.8732 14.6468 40.8366 14.5981 40.8123C14.4884 40.7392 14.6225 40.8488 14.6468 40.8488C14.6103 40.861 14.4519 40.6904 14.4153 40.6539C14.257 40.5077 14.0986 40.3615 13.9524 40.2031C13.8306 40.0691 13.7088 39.9229 13.5869 39.7767C13.526 39.7036 13.4651 39.6305 13.4042 39.5574C13.5626 39.7402 13.4651 39.6305 13.4286 39.5818C13.392 39.5331 13.3555 39.4722 13.3068 39.4234C12.8682 38.8265 12.5027 38.193 12.1738 37.5352C12.0885 37.3646 12.0154 37.2062 11.9423 37.0357C11.9058 36.9626 11.8692 36.8895 11.8449 36.8042C11.8205 36.7677 11.8083 36.7189 11.784 36.6824C11.7109 36.5118 11.857 36.8529 11.784 36.6946C11.6378 36.3413 11.5037 35.9758 11.3697 35.6225C10.8215 34.1119 10.3951 32.5525 9.92 31.0175C9.26214 28.9465 8.49465 26.912 7.49569 24.9872C7.2764 24.5608 6.64294 24.4024 6.24091 24.6582C5.80234 24.9384 5.68049 25.4501 5.91196 25.913C6.15561 26.376 6.3871 26.8511 6.60639 27.3262C6.70385 27.5455 6.81348 27.7648 6.89876 27.9841C6.88657 27.9597 6.82565 27.8013 6.88656 27.9597C6.91093 28.0084 6.9353 28.0693 6.95967 28.1181C7.0084 28.2399 7.05709 28.3617 7.10582 28.4714C7.44693 29.3241 7.75151 30.1891 8.03171 31.0662C8.54337 32.6378 8.98197 34.2337 9.518 35.7931C10.0297 37.2793 10.651 38.7534 11.5403 40.0569C12.0154 40.7513 12.5514 41.4579 13.2093 41.9939C13.9159 42.5909 14.6956 43.0173 15.5605 43.3462C17.2904 44.0162 19.1666 44.2112 20.9208 44.7959C20.9208 44.2112 20.9208 43.6264 20.9208 43.0295C18.265 43.8822 16.7422 46.5258 15.9016 49.0111C15.463 50.2902 15.195 51.6303 15.061 52.9704C14.8905 54.7003 15.0123 56.4546 15.1585 58.1845C15.329 60.3164 15.5361 62.4484 15.2925 64.5803C15.8894 64.495 16.4864 64.422 17.0833 64.3367C16.6935 62.424 16.1453 60.5357 15.463 58.7083C14.7686 56.8688 13.9524 55.0536 12.9656 53.348C12.125 51.9105 11.1139 50.5095 9.82256 49.4496C9.11597 48.8771 8.38499 48.4141 7.53221 48.0852C6.7769 47.7806 5.98506 47.6954 5.18101 47.6223C4.59625 47.5735 4.0237 47.5004 3.43894 47.4639C2.57398 47.4152 1.72118 47.4517 0.85622 47.5004C1.01459 48.073 1.16076 48.6334 1.31913 49.206C2.75667 48.3167 4.15767 47.3421 5.41247 46.1847C6.65508 45.0274 7.81246 43.6995 8.43376 42.1036C9.03071 40.5686 9.12816 38.8509 9.09161 37.2062C9.05506 35.3423 8.90884 33.4784 8.68955 31.6388C8.43372 29.4703 8.06824 27.3018 7.59312 25.1699C7.48348 24.707 6.92312 24.3902 6.47237 24.5364C6.04598 24.7435 5.77794 25.2065 5.89977 25.7059Z" fill="#231F20"/>
<path d="M53.8259 50.2415C53.9965 50.9115 54.1305 51.5816 54.228 52.276C54.2158 52.1907 54.2036 52.1176 54.1914 52.0323C54.3741 53.3846 54.3985 54.7734 54.2158 56.1256C54.228 56.0404 54.2401 55.9673 54.2523 55.882C54.1061 56.9784 53.8259 58.0505 53.3995 59.0616C53.4361 58.9885 53.4605 58.9154 53.497 58.8423C53.2899 59.3296 53.0585 59.8048 52.7783 60.2555C52.6443 60.487 52.4859 60.7184 52.3275 60.9377C52.2544 61.0352 52.1813 61.1327 52.1082 61.2301C52.3031 60.9743 52.1448 61.1814 52.096 61.2423C52.0473 61.3032 51.9985 61.3641 51.9498 61.4128C51.6087 61.8271 51.2189 62.2047 50.8169 62.558C50.7194 62.6433 50.6098 62.7286 50.5123 62.8138C50.4514 62.8626 50.2443 63.0209 50.5001 62.826C50.4392 62.8626 50.3905 62.9113 50.3296 62.96C50.0981 63.1306 49.8545 63.2889 49.6108 63.4473C49.1479 63.7275 48.6849 63.9712 48.1854 64.1783C48.2585 64.1417 48.3316 64.1174 48.4047 64.0808C48.0514 64.227 47.6981 64.3732 47.3448 64.5316C47.1012 64.6412 46.8697 64.7387 46.687 64.9214C46.2728 65.3112 46.3459 65.9813 46.7722 66.3102C46.9915 66.4808 47.2839 66.5295 47.5398 66.6026C47.9783 66.7366 48.4169 66.895 48.8433 67.0777C48.7702 67.0412 48.6971 67.0168 48.624 66.9802C49.7813 67.4797 50.9021 68.101 51.9011 68.8564C51.9255 68.8807 51.9498 68.8929 51.9742 68.9173C51.7671 68.7589 51.8524 68.832 51.9011 68.8564C51.962 68.9051 52.0107 68.9416 52.0716 68.9904C52.1813 69.0756 52.2909 69.1731 52.3884 69.2584C52.5711 69.4289 52.7539 69.5995 52.9244 69.7944C53.0097 69.8797 53.0828 69.9771 53.1681 70.0746C53.2046 70.1233 53.2411 70.1721 53.2777 70.2208C53.3142 70.2695 53.3752 70.3548 53.2046 70.1355C53.229 70.1721 53.2533 70.1964 53.2777 70.233C53.4239 70.4279 53.5701 70.635 53.6919 70.8543C54.0087 71.3538 54.2645 71.8898 54.5081 72.438C54.4716 72.3649 54.4473 72.2918 54.4107 72.2187C55.2878 74.3141 55.6898 76.5679 56.0797 78.7973C56.1771 79.3942 56.2868 79.9912 56.3964 80.5881C56.433 80.7952 56.6401 81.0389 56.8106 81.1363C56.9934 81.2338 57.1883 81.2703 57.3954 81.246C57.8462 81.1851 58.1751 80.8074 58.1873 80.3445C58.2238 79.3333 58.2604 78.3222 58.2969 77.2988C58.3335 76.3242 58.3334 75.3374 58.4675 74.3628C58.4553 74.4481 58.4431 74.5212 58.4309 74.6065C58.5528 73.7659 58.7355 72.9253 58.9548 72.1091C59.0644 71.7071 59.1862 71.305 59.308 70.903C59.4177 70.5741 59.5152 70.233 59.6492 69.9041C59.6126 69.9771 59.5882 70.0502 59.5517 70.1233C59.7222 69.7335 59.9416 69.368 60.1974 69.0269C60.2339 68.9782 60.2705 68.9295 60.307 68.8685C60.3923 68.7589 60.1486 69.0635 60.2826 68.8929C60.3679 68.7833 60.4532 68.6858 60.5385 68.5762C60.6969 68.3812 60.8674 68.1985 61.038 68.0158C61.4035 67.6381 61.7933 67.2726 62.1953 66.9193C62.2928 66.8341 62.3902 66.761 62.4877 66.6757C62.5364 66.6391 62.5852 66.6026 62.6339 66.5539C62.6583 66.5295 62.6826 66.5051 62.7191 66.4929C62.6826 66.5173 62.5364 66.6391 62.6461 66.5417C62.841 66.3955 63.0481 66.2493 63.243 66.1031C63.645 65.8351 64.0592 65.5793 64.51 65.3965C64.4369 65.4331 64.3638 65.4574 64.2907 65.494C64.3273 65.4818 64.3638 65.4696 64.4004 65.4453C64.6196 65.36 64.8267 65.2382 64.9486 65.031C65.046 64.8483 65.0826 64.6534 65.0582 64.4463C64.9973 63.9955 64.6196 63.6544 64.1567 63.6544C63.9496 63.6544 63.7425 63.6422 63.5476 63.6179C63.6329 63.6301 63.706 63.6423 63.7912 63.6544C63.3892 63.5935 62.9872 63.4839 62.6095 63.3255C62.6826 63.362 62.7557 63.3864 62.8288 63.423C62.5974 63.3255 62.378 63.2159 62.1709 63.0818C62.0613 63.0209 61.9639 62.9478 61.8542 62.8869C61.8055 62.8504 61.7446 62.8138 61.6958 62.7773C61.6715 62.7651 61.6471 62.7407 61.6227 62.7286C61.6105 62.7164 61.5984 62.7042 61.5862 62.7042C61.5009 62.6311 61.708 62.8016 61.6958 62.7895C61.2816 62.4484 60.8918 62.0829 60.5263 61.6809C60.441 61.5712 60.3436 61.4738 60.2583 61.3641C60.2218 61.3154 60.173 61.2545 60.1365 61.2057C60.039 61.0839 60.2339 61.3276 60.1974 61.2788C60.173 61.2423 60.1487 61.2179 60.1243 61.1814C59.9416 60.9499 59.7832 60.7063 59.6126 60.4626C59.2715 59.9509 58.967 59.4149 58.6868 58.8667C58.3578 58.2332 58.0533 57.5754 57.7731 56.9175C57.8096 56.9906 57.834 57.0637 57.8705 57.1368C57.0543 55.1998 56.4208 53.1775 55.8969 51.1308C55.7751 50.6557 55.6655 50.1928 55.5558 49.7176C55.4462 49.2547 54.8858 48.938 54.435 49.0841C53.9721 49.2791 53.7041 49.742 53.8259 50.2415C54.0817 51.3501 54.3619 52.4587 54.6909 53.5551C55.0685 54.8343 55.5071 56.1135 56.0066 57.3561C56.5427 58.6596 57.1396 59.9509 57.8949 61.1448C58.565 62.2169 59.369 63.2646 60.3557 64.0564C60.8309 64.4341 61.3304 64.7874 61.8908 65.031C62.5121 65.2991 63.1212 65.4696 63.8034 65.5305C63.9374 65.5427 64.0714 65.5427 64.1932 65.5427C64.108 64.9458 64.0349 64.3488 63.9496 63.7519C62.9506 64.1417 62.0856 64.7509 61.2572 65.4209C60.4288 66.0909 59.6492 66.8462 58.9913 67.6868C58.6624 68.101 58.3578 68.5152 58.1142 68.9904C57.834 69.5508 57.6513 70.1599 57.4685 70.7568C57.03 72.2065 56.6766 73.6806 56.567 75.1913C56.5061 76.044 56.4939 76.909 56.4695 77.7618C56.4452 78.6389 56.4086 79.5039 56.3842 80.381C56.9812 80.2957 57.5781 80.2226 58.1751 80.1374C57.7365 77.713 57.4076 75.2522 56.6279 72.9131C56.2259 71.7314 55.7264 70.5497 54.9954 69.5264C54.63 69.0025 54.2158 68.5152 53.7529 68.0767C53.2168 67.5894 52.6199 67.1508 52.0107 66.761C51.3407 66.3224 50.6341 65.9326 49.9032 65.6036C49.489 65.4087 49.0626 65.2382 48.624 65.0798C48.2707 64.958 47.9174 64.8605 47.5641 64.7509C47.6372 64.7874 47.7103 64.8118 47.7834 64.8483C47.8931 64.958 47.9905 65.0554 48.1001 65.1651C48.1367 65.2381 48.1611 65.3112 48.1976 65.3843C48.2098 65.4696 48.222 65.5427 48.2341 65.628C48.222 65.7133 48.2098 65.7864 48.1976 65.8716C48.1611 65.9447 48.1367 66.0178 48.1001 66.0909C48.027 66.2006 47.9296 66.3346 47.82 66.3833C47.8443 66.3711 47.8565 66.3589 47.8809 66.3468C47.9418 66.3102 48.0027 66.2858 48.0636 66.2493C48.2342 66.164 48.4169 66.0909 48.5996 66.0178C48.5265 66.0544 48.4535 66.0787 48.3804 66.1153C48.8798 65.9082 49.3915 65.7011 49.8788 65.4453C50.4392 65.1529 50.963 64.8118 51.4625 64.4341C52.5224 63.6179 53.4361 62.6555 54.1549 61.5347C55.5437 59.4027 56.1528 56.82 56.165 54.2983C56.165 52.7876 55.9578 51.2648 55.5924 49.8029C55.4705 49.34 54.9346 49.0111 54.4716 49.1694C53.9843 49.2791 53.6919 49.742 53.8259 50.2415Z" fill="#231F20"/>
<path d="M66.167 17.9213C66.2644 18.3721 66.3497 18.8228 66.4228 19.2736C66.4594 19.4928 66.4959 19.7243 66.5325 19.9558C66.5446 20.0289 66.6055 20.37 66.5568 20.102C66.5812 20.236 66.5934 20.37 66.6056 20.4918C66.7152 21.4177 66.8005 22.3557 66.8492 23.2938C66.9467 25.1821 66.9344 27.0825 66.8004 28.9587C66.7639 29.4216 66.7274 29.8845 66.6908 30.3596C66.6664 30.5667 66.6543 30.786 66.6299 30.9931C66.6177 31.0906 66.6056 31.188 66.5934 31.2977C66.5934 31.3464 66.5812 31.3952 66.5812 31.4317C66.569 31.5048 66.5812 31.4683 66.5934 31.3221C66.5934 31.3586 66.5812 31.3952 66.5812 31.4317C66.4715 32.2114 66.301 32.9789 66.0939 33.7342C65.9842 34.1118 65.8624 34.4895 65.7284 34.855C65.6553 35.0377 65.5944 35.2205 65.5213 35.4032C65.5091 35.4519 65.4847 35.4885 65.4726 35.5372C65.5456 35.3057 65.5091 35.4397 65.4847 35.5007C65.436 35.5981 65.3995 35.7078 65.3507 35.8052C65.0218 36.524 64.6441 37.2062 64.1934 37.8641C64.0716 38.0468 63.9376 38.2295 63.8036 38.4001C63.767 38.4488 63.6939 38.5097 63.8401 38.3514C63.8036 38.4001 63.7548 38.4488 63.7183 38.4976C63.6452 38.5828 63.5843 38.6681 63.5112 38.7534C63.231 39.0823 62.9386 39.3869 62.6219 39.6914C62.4635 39.8376 62.3051 39.9838 62.1346 40.13C62.0493 40.2031 61.9518 40.264 61.8787 40.3371C62.0371 40.1787 61.9762 40.264 61.9153 40.3127C61.8666 40.3493 61.8178 40.3858 61.7569 40.4224C61.4036 40.6782 61.026 40.9219 60.6361 41.129C60.295 41.3117 60.1001 41.7868 60.2219 42.1645C60.2706 42.3107 60.3438 42.4569 60.4534 42.5665C60.5874 42.7127 60.8919 42.8589 61.099 42.8345C61.9153 42.7371 62.7315 42.6883 63.5477 42.7127C63.9498 42.7249 64.3396 42.7493 64.7416 42.7858C64.8391 42.798 64.9487 42.8102 65.0462 42.8224C65.1193 42.8345 65.4847 42.8833 65.168 42.8345C65.3751 42.8711 65.5822 42.8954 65.7893 42.932C66.5812 43.066 67.373 43.2609 68.1405 43.5046C68.5304 43.6264 68.9202 43.7604 69.2978 43.9188C69.3831 43.9553 69.4562 43.9797 69.5415 44.0162C69.5902 44.0406 69.639 44.0528 69.6877 44.0771C69.4319 43.9797 69.6024 44.0406 69.6633 44.065C69.8582 44.1502 70.041 44.2355 70.2359 44.3208C70.9791 44.6741 71.6978 45.0639 72.3801 45.5025C72.7212 45.7218 73.0501 45.9411 73.3669 46.1847C73.4521 46.2456 73.5374 46.3066 73.6226 46.3675C73.6592 46.404 73.7079 46.4284 73.7445 46.4649C73.5495 46.3187 73.6348 46.3797 73.6836 46.4162C73.8663 46.5624 74.0369 46.6964 74.2074 46.8426C74.8166 47.3542 75.4013 47.9146 75.9373 48.4994C76.2175 48.804 76.4856 49.1207 76.7536 49.4496C76.8023 49.5227 76.8632 49.5836 76.9119 49.6567C76.717 49.4253 76.9485 49.7055 76.985 49.7664C77.1068 49.9369 77.2287 50.1075 77.3505 50.278C77.8622 51.0212 78.3251 51.8009 78.715 52.6049C78.8124 52.812 78.9099 53.0191 78.9951 53.214C79.0682 53.3846 78.9098 53.0069 78.9829 53.1897C79.0073 53.2506 79.0317 53.3237 79.0561 53.3846C79.0926 53.482 79.1291 53.5795 79.1657 53.677C79.3362 54.1155 79.4824 54.5663 79.6043 55.017C79.7383 55.48 80.2621 55.8089 80.7251 55.6505C80.9444 55.5774 81.1637 55.4434 81.2733 55.2363C81.3951 55.0049 81.4073 54.7856 81.3707 54.5297C81.3707 54.5176 81.3342 54.2861 81.3585 54.4323C81.3829 54.5785 81.3464 54.3592 81.3464 54.347C81.3342 54.2617 81.322 54.1765 81.3098 54.0912C81.2855 53.8963 81.2611 53.7013 81.2489 53.5064C81.2245 53.2018 81.2002 52.8973 81.188 52.5927C81.1758 52.1176 81.188 51.6303 81.1758 51.1552C81.1758 50.5582 81.1393 49.9735 81.0784 49.3765C81.0296 48.9258 80.9687 48.475 80.9078 48.0243C80.8713 47.7563 80.8347 47.4883 80.7982 47.2081C80.786 47.1593 80.786 47.1106 80.7738 47.0619C80.7372 46.8304 80.7982 47.2081 80.7738 47.0619C80.7616 46.9279 80.7373 46.806 80.7251 46.672C80.6154 45.8071 80.518 44.9299 80.4936 44.0528C80.4814 43.602 80.4814 43.1635 80.518 42.7127C80.5301 42.5056 80.5423 42.2863 80.5789 42.0792C80.5301 42.335 80.6033 41.9574 80.6033 41.9087C80.6276 41.7868 80.6398 41.6772 80.6642 41.5554C80.7373 41.1777 80.8469 40.8122 80.9687 40.4589C81.0175 40.3006 81.0784 40.1422 81.1393 39.9838C81.1636 39.9107 81.188 39.8376 81.2246 39.7767C81.2368 39.728 81.2611 39.6914 81.2733 39.6427C81.3586 39.4478 81.2367 39.7402 81.2733 39.6549C81.5657 39.0092 81.8946 38.3879 82.2844 37.8032C82.3941 37.6448 82.5524 37.4742 82.6499 37.3037C82.6377 37.3159 82.5159 37.4742 82.6134 37.3524C82.6499 37.3037 82.6865 37.2671 82.723 37.2184C82.7839 37.1453 82.8448 37.0722 82.9057 36.9991C83.1616 36.7067 83.4296 36.4265 83.722 36.1585C83.8682 36.0245 84.0265 35.8905 84.1849 35.7565C84.3067 35.659 84.1484 35.793 84.1362 35.793C84.1849 35.7687 84.2215 35.72 84.2702 35.6956C84.3555 35.6347 84.4408 35.5738 84.5139 35.5128C84.8428 35.2814 85.1839 35.0865 85.5494 34.9037C85.8905 34.7332 86.0854 34.2337 85.9636 33.8682C85.8296 33.4662 85.5006 33.2225 85.0864 33.1982C84.66 33.1738 84.2336 33.1373 83.8072 33.0885C83.7098 33.0763 83.6123 33.0642 83.5149 33.052C83.4661 33.052 83.4174 33.0276 83.3686 33.0276C83.6123 33.0154 83.4539 33.0398 83.3808 33.0276C83.1616 32.9911 82.9423 32.9667 82.7352 32.9301C81.9068 32.784 81.0906 32.6012 80.2987 32.3698C79.8967 32.2479 79.5068 32.1261 79.117 31.9799C78.9342 31.9068 78.7515 31.8459 78.5566 31.7728C78.5322 31.7606 78.2764 31.6632 78.2764 31.6632C78.3129 31.6753 78.3495 31.6997 78.386 31.7119C78.3495 31.6997 78.3129 31.6753 78.2764 31.6632C78.2277 31.6388 78.1668 31.6144 78.118 31.5901C77.3505 31.249 76.6196 30.8591 75.913 30.4084C75.5597 30.1769 75.2064 29.9454 74.8775 29.6896C74.8409 29.6652 74.8165 29.6409 74.78 29.6165C74.9871 29.7627 74.8165 29.6531 74.78 29.6165C74.7069 29.5556 74.6216 29.4947 74.5485 29.4338C74.378 29.2998 74.2196 29.1536 74.0612 29.0074C73.7567 28.7272 73.4521 28.4348 73.1719 28.1302C72.8795 27.8135 72.6237 27.4724 72.3435 27.1556C72.514 27.3506 72.307 27.1069 72.2704 27.046C72.2095 26.9607 72.1486 26.8876 72.0877 26.8024C71.9537 26.6196 71.8318 26.4369 71.71 26.2541C71.4664 25.8887 71.2471 25.511 71.0278 25.1333C70.6014 24.378 70.2237 23.5984 69.8705 22.7943C69.8583 22.7578 69.8339 22.7212 69.8217 22.6847C69.8096 22.6481 69.7852 22.6116 69.773 22.575C69.8217 22.6968 69.8339 22.709 69.7973 22.6237C69.7486 22.5141 69.6999 22.3923 69.6512 22.2826C69.5659 22.0633 69.4806 21.8441 69.3953 21.6248C69.2248 21.174 69.0542 20.7111 68.8959 20.2603C68.5669 19.3223 68.2623 18.3842 67.9578 17.4462C67.8116 16.9954 67.3121 16.6543 66.837 16.8127C66.3497 16.9467 66.0086 17.434 66.167 17.9213C67.2634 21.3446 68.4086 24.8775 70.5405 27.8135C71.6247 29.3119 72.9283 30.6033 74.4633 31.6632C75.913 32.6621 77.5333 33.4174 79.2023 33.9657C81.1027 34.587 83.0885 34.9281 85.0864 35.0377C84.928 34.4652 84.7819 33.9048 84.6235 33.3322C81.8581 34.7088 79.9332 37.4499 79.0926 40.3859C78.581 42.1767 78.6053 44.0406 78.8124 45.868C78.8733 46.3797 78.9342 46.8791 79.0073 47.3908C79.0195 47.5126 79.0439 47.6223 79.0561 47.7441C79.0682 47.7928 79.0683 47.8415 79.0804 47.8903C79.117 48.1217 79.0561 47.7441 79.0804 47.9025C79.117 48.1339 79.1413 48.3776 79.1779 48.609C79.2632 49.3278 79.3484 50.0466 79.3606 50.7653C79.3728 51.3136 79.3606 51.8618 79.3728 52.41C79.3972 53.2749 79.4946 54.1399 79.6165 55.0049C80.2012 54.8465 80.786 54.6759 81.3829 54.5176C80.4449 51.2039 78.4956 48.207 75.9373 45.9289C73.379 43.6386 70.2116 41.9696 66.8492 41.2752C64.9731 40.8853 63.0239 40.7635 61.1234 41.0072C61.2818 41.5797 61.428 42.1401 61.5863 42.7127C64.5832 41.0681 66.6055 38.1077 67.6654 34.9159C68.2136 33.2591 68.4573 31.5413 68.5913 29.7992C68.7497 27.8744 68.7984 25.9496 68.7253 24.0247C68.64 21.8197 68.4085 19.6147 67.9578 17.4584C67.8603 16.9954 67.2878 16.6787 66.837 16.8249C66.3132 16.9589 66.0695 17.4218 66.167 17.9213Z" fill="#231F20"/>
</svg>
