<svg width="29" height="28" viewBox="0 0 29 28" fill="none" xmlns="http://www.w3.org/2000/svg">
<path d="M14.9988 28C22.7308 28 28.9988 21.732 28.9988 14C28.9988 6.26801 22.7308 0 14.9988 0C7.26679 0 0.998779 6.26801 0.998779 14C0.998779 21.732 7.26679 28 14.9988 28Z" fill="black"/>
<path d="M12.4368 21.385C18.6458 21.385 22.0408 16.24 22.0408 11.781C22.0408 11.634 22.0408 11.487 22.0338 11.347C22.6918 10.871 23.2658 10.276 23.7208 9.59702C23.1188 9.86302 22.4678 10.045 21.7818 10.129C22.4818 9.70901 23.0138 9.05101 23.2658 8.26001C22.6148 8.64501 21.8938 8.92501 21.1238 9.07901C20.5078 8.42101 19.6328 8.01501 18.6598 8.01501C16.7978 8.01501 15.2858 9.52701 15.2858 11.389C15.2858 11.655 15.3138 11.914 15.3768 12.159C12.5698 12.019 10.0848 10.675 8.41883 8.63101C8.13183 9.12801 7.96383 9.70901 7.96383 10.325C7.96383 11.494 8.55883 12.53 9.46883 13.132C8.91583 13.118 8.39783 12.964 7.94283 12.712C7.94283 12.726 7.94283 12.74 7.94283 12.754C7.94283 14.392 9.10483 15.75 10.6518 16.065C10.3718 16.142 10.0708 16.184 9.76283 16.184C9.54583 16.184 9.33583 16.163 9.12583 16.121C9.55283 17.465 10.7988 18.438 12.2758 18.466C11.1208 19.369 9.66483 19.908 8.08283 19.908C7.80983 19.908 7.54383 19.894 7.27783 19.859C8.75483 20.825 10.5328 21.385 12.4368 21.385Z" fill="#E8F5E2"/>
</svg>
